<svg width="18" height="18" viewBox="0 0 18 18" fill="none" xmlns="http://www.w3.org/2000/svg">
<circle cx="9" cy="9" r="9" fill="white"/>
<path d="M12.1468 6.00975C12.198 5.95317 12.2591 5.90823 12.3265 5.87754C12.3939 5.84686 12.4663 5.83105 12.5395 5.83105C12.6126 5.83105 12.685 5.84686 12.7524 5.87754C12.8198 5.90823 12.8809 5.95317 12.9321 6.00975C13.1466 6.24456 13.1496 6.624 12.9396 6.86288L8.50483 12.5423C8.45448 12.6022 8.39338 12.6503 8.32527 12.6837C8.25715 12.7172 8.18346 12.7352 8.10869 12.7367C8.03392 12.7382 7.95965 12.7232 7.89043 12.6926C7.8212 12.6619 7.75847 12.6163 7.70608 12.5585L5.00758 9.59613C4.90351 9.48115 4.84521 9.32654 4.84521 9.1655C4.84521 9.00447 4.90351 8.84986 5.00758 8.73488C5.05877 8.6783 5.11986 8.63335 5.18728 8.60267C5.25469 8.57199 5.32708 8.55618 5.40021 8.55618C5.47333 8.55618 5.54573 8.57199 5.61314 8.60267C5.68056 8.63335 5.74165 8.6783 5.79283 8.73488L8.08183 11.2479L12.1318 6.02763C12.1365 6.02135 12.1415 6.01538 12.1468 6.00975Z" fill="#393838"/>
</svg>
