<svg width="18" height="21" viewBox="0 0 18 21" fill="none" xmlns="http://www.w3.org/2000/svg">
<path d="M13.9332 5.90625C13.9332 6.9446 13.6264 7.95964 13.0517 8.823C12.4769 9.68635 11.66 10.3593 10.7042 10.7566C9.7484 11.154 8.69666 11.2579 7.68199 11.0554C6.66732 10.8528 5.73529 10.3528 5.00375 9.61856C4.27222 8.88433 3.77402 7.94887 3.57219 6.93047C3.37036 5.91207 3.47395 4.85647 3.86986 3.89716C4.26576 2.93785 4.9362 2.11791 5.7964 1.54103C6.65659 0.964158 7.66792 0.65625 8.70247 0.65625C10.0898 0.65625 11.4202 1.20937 12.4011 2.19394C13.3821 3.17851 13.9332 4.51386 13.9332 5.90625Z" stroke="currentColor" stroke-linecap="round" stroke-linejoin="round"/>
<path d="M12.7693 13.125L16.0385 14.4375L16.6923 20H1L1.65389 14.4375L4.92312 13.125" stroke="currentColor" stroke-linecap="round" stroke-linejoin="round"/>
</svg>
