<svg width="30" height="31" viewBox="0 0 30 31" fill="none" xmlns="http://www.w3.org/2000/svg">
<path d="M17.5496 15.2444C17.5496 15.7307 17.4066 16.2061 17.1388 16.6104C16.8709 17.0148 16.4903 17.3299 16.0449 17.516C15.5995 17.7021 15.1094 17.7508 14.6366 17.6559C14.1638 17.561 13.7295 17.3269 13.3886 16.983C13.0477 16.6391 12.8156 16.201 12.7215 15.7241C12.6275 15.2471 12.6758 14.7527 12.8602 14.3035C13.0447 13.8542 13.3571 13.4702 13.758 13.2C14.1588 12.9299 14.63 12.7856 15.1121 12.7856C15.7586 12.7856 16.3785 13.0447 16.8357 13.5058C17.2928 13.9669 17.5496 14.5923 17.5496 15.2444Z" stroke="currentColor" stroke-miterlimit="10"/>
<path d="M13.5258 4.91748L12.9501 8.32487C11.9906 8.61651 11.101 9.12023 10.3403 9.80254L7.40422 8.94561L5.84985 11.7525L8.0119 14.0466C7.92946 14.4913 7.8845 14.9429 7.87756 15.3961C7.87805 15.9502 7.93816 16.5025 8.05668 17.0424L6.13771 19.0666L7.67287 21.887L10.385 21.1313C11.135 21.791 12.0061 22.2803 12.9436 22.5685L13.6985 25.571H16.7816L17.6004 22.3121C18.2978 22.0127 18.9455 21.5982 19.5194 21.084L22.4682 21.9477L24.0161 19.1341L21.8605 16.8467C21.9438 16.4023 21.9867 15.9504 21.9884 15.4973C21.992 15.1335 21.9663 14.7701 21.9117 14.411L24.3744 11.8605L22.8392 9.04009L19.6409 9.93749C19.0573 9.37557 18.3893 8.91957 17.6643 8.58803L16.788 5.32906H13.0908" stroke="currentColor" stroke-miterlimit="10"/>
</svg>
