<svg width="12" height="14" viewBox="0 0 12 14" fill="none" xmlns="http://www.w3.org/2000/svg">
  <path d="M1 3.11719H2.11111H11" stroke="#393838" stroke-linecap="round" stroke-linejoin="round" />
  <path d="M3.55158 3.4V2.2C3.55158 1.88174 3.68059 1.57652 3.91022 1.35147C4.13986 1.12643 4.45131 1 4.77607 1H7.22505C7.5498 1 7.86126 1.12643 8.09089 1.35147C8.32053 1.57652 8.44954 1.88174 8.44954 2.2V3.4M10.2863 3.4V11.8C10.2863 12.1183 10.1573 12.4235 9.92763 12.6485C9.69799 12.8736 9.38654 13 9.06178 13H2.93933C2.61458 13 2.30312 12.8736 2.07349 12.6485C1.84385 12.4235 1.71484 12.1183 1.71484 11.8V3.4H10.2863Z" stroke="#393838" stroke-linecap="round" stroke-linejoin="round" />
  <path d="M4.57031 6.64746V10.1769" stroke="#393838" stroke-linecap="round" stroke-linejoin="round" />
  <path d="M7.42969 6.64746V10.1769" stroke="#393838" stroke-linecap="round" stroke-linejoin="round" />
</svg>
